<svg width="190" height="142" viewBox="0 0 190 142" fill="none" xmlns="http://www.w3.org/2000/svg">
<path d="M48.905 76.796L93.7393 56.1724L138.525 76.796L93.7393 88.0499L48.905 76.796Z" fill="black" stroke="black" stroke-width="0.87" stroke-miterlimit="10" stroke-linecap="round" stroke-linejoin="round"/>
<path d="M110.074 33.761C107.408 33.761 105.518 34.6792 104.209 35.6931C102.852 36.7075 102.173 36.0311 100.913 34.6788C99.3139 32.9885 95.4365 33.5679 92.8188 33.858C88.36 34.3408 84.8701 37.7701 84.3852 42.2138C83.7553 47.961 88.2631 52.7913 93.8852 52.7913C95.6788 52.7913 97.375 52.3081 98.829 51.3903C100.768 50.2311 103.143 50.2794 105.082 51.4385C106.294 52.1632 107.941 52.7431 110.074 52.7431C112.207 52.7431 113.855 52.1632 115.066 51.4385C117.005 50.2794 119.429 50.1828 121.319 51.3903C122.773 52.2598 124.469 52.7913 126.263 52.7913C131.885 52.7913 136.393 47.961 135.763 42.2138C135.278 37.7701 131.788 34.2925 127.329 33.858C124.884 33.5763 122.427 34.2708 120.495 35.7897C119.138 36.804 117.296 36.7558 115.939 35.7414C114.63 34.6305 112.74 33.761 110.074 33.761ZM138.09 39.4121C138.334 39.416 138.577 39.3714 138.804 39.2809C139.03 39.1905 139.237 39.0559 139.411 38.8851C139.585 38.7143 139.724 38.5106 139.818 38.286C139.913 38.0614 139.961 37.8203 139.961 37.5767C139.961 37.3332 139.913 37.0921 139.818 36.8675C139.724 36.6429 139.585 36.4392 139.411 36.2684C139.237 36.0976 139.03 35.963 138.804 35.8725C138.577 35.7821 138.334 35.7375 138.09 35.7414C137.606 35.7491 137.145 35.9459 136.806 36.2893C136.467 36.6326 136.277 37.095 136.277 37.5767C136.277 38.0585 136.467 38.5209 136.806 38.8642C137.145 39.2076 137.606 39.4044 138.09 39.4121Z" fill="black"/>
<path d="M35.6245 30.477H28.8386V36.9484H35.6245V30.477ZM42.3614 23.9081H35.576V30.38H42.3614V23.9081Z" fill="white" stroke="black" stroke-width="0.87" stroke-miterlimit="10" stroke-linecap="round" stroke-linejoin="round"/>
<path d="M116.279 24.8737H113.807V27.3374H116.279V24.8737ZM136.15 25.889H117.587V26.3718H136.15V25.889ZM138.283 25.8894H137.799V26.3722H138.283V25.8894ZM153.066 26.3718H152.145V25.889H153.066V26.3718ZM149.383 26.3718H148.462V25.889H149.383V26.3718ZM145.65 26.3718H144.73V25.889H145.65V26.3718ZM141.967 26.3718H141.046V25.889H141.967V26.3718ZM156.313 25.889H155.828V26.3718H156.313V25.889ZM157.865 28.4005L157.623 28.0142L160.579 26.2269L157.623 24.2953L157.914 23.8603L161.5 26.2269L157.865 28.4005Z" fill="black"/>
<path d="M133.678 21.2517L137.265 16.9051M130.964 9.46666L124.712 22.0242M59.7151 34.0506L69.1666 45.884M71.3464 17.6293L78.5199 34.727" stroke="#DEDFEA" stroke-width="0.87" stroke-miterlimit="10"/>
<path d="M95.1938 95.1017L104.403 97.9999H110.316V66.2189L120.252 74.3332C123.5 77.4724 128.735 77.2792 131.691 73.8499L141.337 62.7896L148.752 67.0884C149.431 67.4746 150.303 67.2815 150.74 66.6534C151.176 65.9775 150.982 65.0597 150.304 64.6252L143.179 60.0849L150.401 64.6734C151.031 65.108 151.903 64.9148 152.339 64.2867C152.776 63.6108 152.63 62.7413 151.952 62.3068L144.923 57.7183L151.855 62.2585C152.581 62.7413 153.599 62.5482 154.084 61.8235C154.569 61.0993 154.375 60.0849 153.648 59.6017L146.814 55.0615L153.696 59.6017C154.423 60.0849 155.441 59.8918 155.926 59.1671C156.411 58.3942 156.217 57.3798 155.441 56.897L143.906 49.7488L147.88 47.5752C148.801 47.0924 149.141 45.9815 148.656 45.0637C148.171 44.1459 147.056 43.7597 146.135 44.1942L142.258 46.0781C139.398 47.4787 137.12 49.0724 135.327 51.1011L126.99 60.4229C126.99 60.4229 116.327 51.0528 111.673 46.8027C109.735 45.0154 107.263 43.9045 104.645 43.9533L93.7398 44.2425H94.2728H93.5945H94.1274L83.2219 43.9528C80.6047 43.9045 78.1328 45.0154 76.1938 46.8023C71.5407 51.0528 60.8774 60.4229 60.8774 60.4229L52.5407 51.1011C50.7476 49.0724 48.4695 47.4304 45.6095 46.0781L41.7321 44.1942C40.8111 43.7597 39.6478 44.0976 39.2117 45.0637C38.7757 45.9815 39.1148 47.0924 39.9869 47.5752L43.9617 49.7488L32.4259 56.897C31.6507 57.3798 31.4569 58.3942 31.9414 59.1671C32.4259 59.8918 33.4438 60.0849 34.171 59.6017L41.0538 55.0615L34.2195 59.6017C33.4927 60.0849 33.298 61.0993 33.783 61.8235C34.2675 62.5482 35.2859 62.7413 36.0126 62.2585L42.9438 57.7183L35.9157 62.3068C35.2374 62.7413 35.0431 63.6591 35.5281 64.2867C35.9642 64.9148 36.8367 65.108 37.4666 64.6734L44.689 60.0849L37.564 64.6252C36.8847 65.0597 36.6914 65.9775 37.1274 66.6534C37.564 67.2815 38.4361 67.4746 39.1148 67.0884L46.5305 62.7896L56.1759 73.8499C59.1328 77.2792 64.4157 77.4724 67.6148 74.3332L77.5509 66.2189V97.9999H83.4642L92.6735 95.1017H95.1938Z" fill="#FFECF4" stroke="black" stroke-width="0.87" stroke-miterlimit="10"/>
<path d="M123.354 57.3316C119.816 54.1919 114.485 49.4586 111.528 46.8023C109.589 45.0154 107.117 43.9045 104.5 43.9528L93.594 44.2425H94.127H93.4487H93.9816L83.0761 43.9528C80.4588 43.9045 77.9869 45.0154 76.048 46.8023C73.0916 49.5069 67.7597 54.2402 64.2214 57.3316L74.0121 68.8752L77.2597 66.2189V97.9994H83.173L92.3823 95.1017H95.2418L104.451 97.9994H110.364V66.2189L113.612 68.8752L123.354 57.3316Z" fill="#87A7FF" stroke="black" stroke-width="0.87" stroke-miterlimit="10"/>
<path d="M138.719 54.82C141.531 54.82 143.809 52.5499 143.809 49.7487" stroke="black" stroke-width="0.87" stroke-miterlimit="10" stroke-linecap="round" stroke-linejoin="round"/>
<path d="M141.337 62.7891L139.883 61.9683L136.442 68.2954L141.337 62.7891Z" fill="black" stroke="black" stroke-width="0.87" stroke-miterlimit="10" stroke-linecap="round" stroke-linejoin="round"/>
<path d="M48.8581 54.82C46.0465 54.82 43.7684 52.5499 43.7684 49.7483" stroke="black" stroke-width="0.87" stroke-miterlimit="10" stroke-linecap="round" stroke-linejoin="round"/>
<path d="M46.2399 62.7891L47.6938 61.9678L51.0868 68.2954L46.2399 62.7891Z" fill="black" stroke="black" stroke-width="0.87" stroke-miterlimit="10" stroke-linecap="round" stroke-linejoin="round"/>
<path d="M104.451 39.7505C104.112 39.7505 103.821 39.7993 103.531 39.9441C102.706 35.4522 98.7321 32.0712 93.9821 32.0712C89.2321 32.0712 85.3057 35.4522 84.4336 39.9441C84.1425 39.8476 83.8518 39.751 83.5126 39.751C82.1555 39.751 81.0892 40.8136 81.0892 42.1659C81.0892 43.5183 82.1555 44.5809 83.5126 44.5809C83.9002 44.5809 84.2883 44.4843 84.6274 44.2907C85.7423 48.3482 89.5228 51.3425 93.9821 51.3425C98.4409 51.3425 102.173 48.3482 103.337 44.2907C103.676 44.4843 104.063 44.5809 104.451 44.5809C105.809 44.5809 106.875 43.5183 106.875 42.1659C106.875 40.8132 105.809 39.7505 104.451 39.7505Z" fill="#FFECF4" stroke="black" stroke-width="0.87" stroke-miterlimit="10"/>
<path d="M93.9811 32.0707C93.9811 32.0707 86.5654 31.781 84.3358 40.1368C84.6749 40.2816 84.9656 40.5718 85.2083 40.9097C85.4506 41.2477 85.6928 41.1511 85.6928 40.7649C85.8866 38.5913 87.2437 36.6109 87.8256 36.0798C88.1647 35.7902 88.2132 36.273 88.407 36.7075C89.6672 40.0402 95.0959 44.5317 102.269 41.0546C102.657 40.8615 103.772 40.1368 103.772 40.1368C101.542 31.781 94.1265 32.0712 94.1265 32.0712L93.9811 32.0707Z" fill="black"/>
<path d="M48.905 76.7964V119.541L93.7393 132.582V88.0499L48.905 76.7964ZM138.573 76.7964V119.541L93.7393 132.582V88.0499L138.573 76.7964Z" fill="#B6BBE2"/>
<path d="M93.7393 132.582L48.905 119.541V76.7964L93.7393 88.0499M93.7393 132.582V88.0499M93.7393 132.582L138.573 119.541V76.7964L93.7393 88.0499" stroke="black" stroke-width="0.87" stroke-miterlimit="10"/>
<path d="M49.1478 80.8051L49.1963 102.25L75.4666 109.784L93.7394 88.0499L49.1478 80.8051ZM138.429 80.8051V102.25L112.159 109.784L93.8857 88.0499L138.429 80.8051Z" fill="black" stroke="black" stroke-width="0.87" stroke-miterlimit="10" stroke-linecap="round" stroke-linejoin="round"/>
<path d="M138.72 76.7964L160.095 92.9764L112.74 105.969L93.8372 88.0499L138.72 76.7964ZM48.9055 76.7964L28.5 92.3005L74.8367 105.969L93.7398 88.0499L48.9055 76.7964Z" fill="#DEDFEA" stroke="black" stroke-width="0.87" stroke-miterlimit="10" stroke-linecap="round" stroke-linejoin="round"/>
</svg>
