<svg width="320" height="240" viewBox="0 0 320 240" fill="none" xmlns="http://www.w3.org/2000/svg">
<path opacity="0.46" d="M258.4 153.348C250.028 150.076 252.2 125.052 260.484 114.524C281.484 87.856 270.084 57.62 247.36 54.792C212.268 50.428 181.6 68.4 140.8 86.58C126.512 92.948 114 89.616 85.652 92.98C30.128 99.6 40.284 157.272 83.308 174.532C116.508 187.852 99.812 189.508 105.84 198.192C117.04 198.192 128.216 198.136 139.4 198.408C139.413 198.301 139.466 198.202 139.548 198.132C139.63 198.061 139.736 198.024 139.844 198.028C144.748 198.028 149.648 198.3 154.548 198.384C154.515 198.28 154.52 198.168 154.563 198.068C154.605 197.968 154.682 197.886 154.78 197.838C154.844 197.805 154.916 197.788 154.988 197.788H233.32C251.772 188.028 274.196 196 285.08 189.2C302.696 178.14 284.436 163.532 258.4 153.348Z" fill="#C2D3F9"/>
<path opacity="0.68" d="M139.7 97.916H86.404C84.5114 97.916 82.6964 98.6678 81.3581 100.006C80.0198 101.344 79.268 103.159 79.268 105.052V182.72C79.268 184.613 80.0198 186.428 81.3581 187.766C82.6964 189.104 84.5114 189.856 86.404 189.856H139.7C141.593 189.856 143.408 189.104 144.746 187.766C146.084 186.428 146.836 184.613 146.836 182.72V105.052C146.836 103.159 146.084 101.344 144.746 100.006C143.408 98.6678 141.593 97.916 139.7 97.916Z" fill="#A1BEF7"/>
<g style="mix-blend-mode:multiply" opacity="0.87">
<path d="M258.672 73.436H167.688C166.066 73.436 164.51 74.0804 163.363 75.2274C162.216 76.3743 161.572 77.93 161.572 79.552V140.544C161.572 142.166 162.216 143.722 163.363 144.869C164.51 146.016 166.066 146.66 167.688 146.66H258.672C260.294 146.66 261.85 146.016 262.997 144.869C264.144 143.722 264.788 142.166 264.788 140.544V79.552C264.788 77.93 264.144 76.3743 262.997 75.2274C261.85 74.0804 260.294 73.436 258.672 73.436Z" fill="#A1BEF7"/>
</g>
<path d="M145.364 94.24H93.436C92.409 94.2399 91.3921 94.4421 90.4433 94.835C89.4945 95.228 88.6324 95.804 87.9062 96.5302C87.18 97.2564 86.604 98.1185 86.211 99.0673C85.8181 100.016 85.6159 101.033 85.616 102.06V155.8C85.6159 156.827 85.8181 157.844 86.211 158.793C86.604 159.742 87.18 160.604 87.9062 161.33C88.6324 162.056 89.4945 162.632 90.4433 163.025C91.3921 163.418 92.409 163.62 93.436 163.62H145.364C149.682 163.62 153.184 160.119 153.184 155.8V102.06C153.184 97.7408 149.682 94.24 145.364 94.24Z" fill="#EAF4FE" stroke="#231815" stroke-width="0.555" stroke-miterlimit="10"/>
<path d="M252.076 67.588H162.46C160.964 67.588 159.53 68.1822 158.472 69.2399C157.414 70.2976 156.82 71.7322 156.82 73.228V135.172C156.82 136.668 157.414 138.102 158.472 139.16C159.53 140.218 160.964 140.812 162.46 140.812H252.076C253.572 140.812 255.006 140.218 256.064 139.16C257.122 138.102 257.716 136.668 257.716 135.172V73.228C257.716 71.7322 257.122 70.2976 256.064 69.2399C255.006 68.1822 253.572 67.588 252.076 67.588Z" fill="#F5F8FE" stroke="#231815" stroke-width="0.31" stroke-miterlimit="10"/>
<g style="mix-blend-mode:multiply" opacity="0.38">
<path d="M245.116 86.052H219.224C218.344 86.052 217.499 86.4018 216.876 87.0244C216.254 87.647 215.904 88.4915 215.904 89.372V123.036C215.904 123.917 216.254 124.761 216.876 125.384C217.499 126.006 218.344 126.356 219.224 126.356H245.116C245.997 126.356 246.841 126.006 247.464 125.384C248.086 124.761 248.436 123.917 248.436 123.036V89.372C248.436 88.4915 248.086 87.647 247.464 87.0244C246.841 86.4018 245.997 86.052 245.116 86.052Z" fill="#8CACE2"/>
</g>
<path d="M202.852 100.996H170.168C169.254 100.996 168.376 101.359 167.73 102.006C167.083 102.652 166.72 103.529 166.72 104.444V120.14C166.72 121.054 167.083 121.931 167.73 122.578C168.376 123.225 169.254 123.588 170.168 123.588H202.852C203.766 123.588 204.643 123.225 205.29 122.578C205.937 121.931 206.3 121.054 206.3 120.14V104.444C206.3 103.529 205.937 102.652 205.29 102.006C204.643 101.359 203.766 100.996 202.852 100.996Z" fill="white" stroke="#231815" stroke-width="0.31" stroke-miterlimit="10"/>
<path d="M160.064 75.696H253.332" stroke="#231815" stroke-width="0.275" stroke-miterlimit="10"/>
<path d="M24.788 197.56H309.46" stroke="black" stroke-width="0.555" stroke-miterlimit="10"/>
<path d="M66.772 83.492L71.8 88.52M66.752 88.572L71.872 83.512M71.896 83.464H66.744V88.616H71.896V83.464ZM95.88 83.516H78.244C77.8748 83.5159 77.5092 83.5885 77.1681 83.7297C76.827 83.8708 76.5171 84.0778 76.2559 84.3388C75.9948 84.5998 75.7877 84.9096 75.6463 85.2506C75.5049 85.5917 75.4321 85.9572 75.432 86.3264C75.4324 87.0718 75.7289 87.7866 76.2562 88.3135C76.7835 88.8403 77.4986 89.1362 78.244 89.136H95.88C96.6254 89.1362 97.3404 88.8403 97.8678 88.3135C98.3951 87.7866 98.6916 87.0718 98.692 86.3264C98.6919 85.9572 98.6191 85.5917 98.4777 85.2506C98.3363 84.9096 98.1292 84.5998 97.868 84.3388C97.6069 84.0778 97.297 83.8708 96.9558 83.7297C96.6147 83.5885 96.2492 83.5159 95.88 83.516Z" stroke="#231815" stroke-width="0.275" stroke-miterlimit="10"/>
<path d="M197.856 159.928L185.508 159.624L188.228 150.956C188.228 150.956 185.912 148.668 185.52 146.328C185.128 143.988 185.94 133.528 185.94 133.528C185.94 133.528 185.596 129.716 187.14 128.82C188.684 127.924 191.268 127.872 191.54 131.556C191.812 135.24 191.54 135.212 191.54 135.212L193.304 132.372L200.588 119.572C200.588 119.572 202.064 117.256 204.168 118.204C206.272 119.152 205.22 121.804 204.404 123.596C203.588 125.388 201.88 128.7 201.88 128.7C201.88 128.7 204.248 126.228 206.168 127.9C208.088 129.572 206.22 132.112 206.22 132.112C206.22 132.112 208.272 130.912 209.716 132.428C211.16 133.944 208.692 137.528 208.692 137.528L204.152 144.52C204.152 144.52 203.88 149.248 200.04 152.22L197.856 159.928Z" fill="#F9D3DC"/>
<path d="M185.408 159.728L188.636 150.364M197.768 160.196C198.272 159.316 200.408 151.6 200.408 151.6" stroke="#231815" stroke-width="0.415" stroke-miterlimit="10"/>
<path d="M195.6 153.108C195.6 153.108 203.28 153.364 204.432 144.248C204.432 144.248 209.296 136.836 209.832 135.656C210.368 134.476 210.984 132.32 209.1 131.624C208.601 131.412 208.048 131.36 207.518 131.476C206.988 131.591 206.506 131.868 206.14 132.268C206.14 132.268 207.104 131.044 207.264 130.34C207.424 129.636 207.788 128.34 205.96 127.356C204.132 126.372 202.008 128.236 201.312 130.124C201.312 130.124 203.216 126.044 203.784 125.016C205.976 121.016 205.98 119.188 204.584 118.112C202.432 116.436 200.672 119.312 198.984 122.344C198.504 123.22 191.752 135.308 191.752 135.308" stroke="#231815" stroke-width="0.415" stroke-miterlimit="10"/>
<path d="M189.54 151.328C189.54 151.328 185.384 148.948 185.568 143.204C185.752 137.46 186.388 132.64 186.332 131.172C186.276 129.704 187.212 127.82 189.236 127.972C191.26 128.124 192.66 130.808 191.292 138.012" stroke="#231815" stroke-width="0.415" stroke-miterlimit="10"/>
<path d="M190.224 146.244C190.224 146.244 193.656 144.008 192.624 140.096M201.304 130.124L197.888 136.344M206.132 132.268L202.736 137.904" stroke="#231815" stroke-width="0.415" stroke-miterlimit="10"/>
<path d="M259.4 157.784C267.68 157.784 274.392 151.072 274.392 142.792C274.392 134.512 267.68 127.8 259.4 127.8C251.12 127.8 244.408 134.512 244.408 142.792C244.408 151.072 251.12 157.784 259.4 157.784Z" fill="white" stroke="#231815" stroke-width="0.41" stroke-miterlimit="10"/>
<path d="M259.4 151.768C264.357 151.768 268.376 147.75 268.376 142.792C268.376 137.834 264.357 133.816 259.4 133.816C254.442 133.816 250.424 137.834 250.424 142.792C250.424 147.75 254.442 151.768 259.4 151.768Z" fill="#FF6666" stroke="#231815" stroke-width="0.41" stroke-miterlimit="10"/>
<path d="M203.912 84.292H167.98C167.747 84.287 167.515 84.3286 167.299 84.4143C167.082 84.5 166.885 84.6281 166.718 84.7911C166.552 84.9541 166.419 85.1487 166.329 85.3635C166.239 85.5783 166.192 85.809 166.192 86.042C166.192 86.275 166.239 86.5057 166.329 86.7205C166.419 86.9353 166.552 87.1299 166.718 87.2929C166.885 87.4558 167.082 87.584 167.299 87.6697C167.515 87.7554 167.747 87.797 167.98 87.792H203.912C204.147 87.8007 204.382 87.7619 204.602 87.6779C204.822 87.5938 205.022 87.4663 205.192 87.303C205.362 87.1396 205.496 86.9437 205.588 86.7271C205.681 86.5104 205.728 86.2774 205.728 86.042C205.728 85.8065 205.681 85.5735 205.588 85.3569C205.496 85.1402 205.362 84.9443 205.192 84.781C205.022 84.6176 204.822 84.4901 204.602 84.4061C204.382 84.3221 204.147 84.2833 203.912 84.292Z" fill="#49E5DB" stroke="#231815" stroke-width="0.31" stroke-miterlimit="10"/>
<path d="M203.912 91.248H167.98C167.747 91.243 167.515 91.2846 167.299 91.3703C167.082 91.456 166.885 91.5842 166.718 91.7471C166.552 91.9101 166.419 92.1047 166.329 92.3195C166.239 92.5343 166.192 92.765 166.192 92.998C166.192 93.231 166.239 93.4617 166.329 93.6765C166.419 93.8913 166.552 94.0859 166.718 94.2489C166.885 94.4119 167.082 94.54 167.299 94.6257C167.515 94.7114 167.747 94.753 167.98 94.748H203.912C204.147 94.7567 204.382 94.7179 204.602 94.6339C204.822 94.5499 205.022 94.4224 205.192 94.259C205.362 94.0957 205.496 93.8998 205.588 93.6831C205.681 93.4665 205.728 93.2335 205.728 92.998C205.728 92.7626 205.681 92.5296 205.588 92.3129C205.496 92.0963 205.362 91.9004 205.192 91.737C205.022 91.5737 204.822 91.4462 204.602 91.3621C204.382 91.2781 204.147 91.2393 203.912 91.248Z" fill="#2F54EB" stroke="#231815" stroke-width="0.31" stroke-miterlimit="10"/>
<path d="M182.28 107.432H171.876C171.445 107.432 171.032 107.603 170.728 107.908C170.423 108.212 170.252 108.625 170.252 109.056V117.852C170.252 118.065 170.294 118.276 170.376 118.473C170.457 118.671 170.577 118.85 170.728 119C170.878 119.151 171.057 119.271 171.255 119.352C171.452 119.434 171.663 119.476 171.876 119.476H182.28C182.493 119.476 182.704 119.434 182.901 119.352C183.099 119.271 183.278 119.151 183.428 119C183.579 118.85 183.699 118.671 183.78 118.473C183.862 118.276 183.904 118.065 183.904 117.852V109.056C183.904 108.625 183.733 108.212 183.428 107.908C183.124 107.603 182.711 107.432 182.28 107.432Z" fill="#2F54EB" stroke="#231815" stroke-width="0.415" stroke-miterlimit="10"/>
<path d="M188.236 107.916H203.976M188.236 111.128H195.304M188.236 114.5H203.976M188.236 117.388H201.084M171.576 119.344L174.184 115.56L177.628 117.116L183.844 111.784" stroke="black" stroke-width="0.465" stroke-miterlimit="10"/>
<path d="M177.012 113.04C177.22 113.04 177.425 112.999 177.617 112.92C177.808 112.84 177.983 112.724 178.129 112.577C178.276 112.431 178.392 112.256 178.472 112.065C178.551 111.873 178.592 111.667 178.592 111.46C178.592 111.253 178.551 111.047 178.472 110.855C178.392 110.664 178.276 110.489 178.129 110.343C177.983 110.196 177.808 110.08 177.617 110C177.425 109.921 177.22 109.88 177.012 109.88C176.593 109.88 176.191 110.046 175.895 110.343C175.598 110.639 175.432 111.041 175.432 111.46C175.432 111.879 175.598 112.281 175.895 112.577C176.191 112.874 176.593 113.04 177.012 113.04Z" fill="white" stroke="black" stroke-width="0.465" stroke-miterlimit="10"/>
<path d="M242.38 83.104H216.488C215.607 83.104 214.763 83.4538 214.14 84.0764C213.518 84.699 213.168 85.5435 213.168 86.424V120.088C213.168 120.969 213.518 121.813 214.14 122.436C214.763 123.058 215.607 123.408 216.488 123.408H242.38C243.26 123.408 244.105 123.058 244.728 122.436C245.35 121.813 245.7 120.969 245.7 120.088V86.424C245.7 85.5435 245.35 84.699 244.728 84.0764C244.105 83.4538 243.26 83.104 242.38 83.104Z" fill="#49E5DB" stroke="#231815" stroke-width="0.31" stroke-miterlimit="10"/>
<path d="M215.876 92.192H243.34" stroke="#231815" stroke-width="0.275" stroke-miterlimit="10"/>
<path d="M219.384 89.904C219.997 89.904 220.585 89.6604 221.019 89.2269C221.452 88.7933 221.696 88.2052 221.696 87.592C221.696 86.9788 221.452 86.3908 221.019 85.9572C220.585 85.5236 219.997 85.28 219.384 85.28C218.771 85.28 218.183 85.5236 217.749 85.9572C217.316 86.3908 217.072 86.9788 217.072 87.592C217.072 88.2052 217.316 88.7933 217.749 89.2269C218.183 89.6604 218.771 89.904 219.384 89.904Z" stroke="#231815" stroke-width="0.31" stroke-miterlimit="10"/>
<path d="M226.424 89.904C227.037 89.904 227.625 89.6604 228.059 89.2269C228.492 88.7933 228.736 88.2052 228.736 87.592C228.736 86.9788 228.492 86.3908 228.059 85.9572C227.625 85.5236 227.037 85.28 226.424 85.28C225.811 85.28 225.223 85.5236 224.789 85.9572C224.356 86.3908 224.112 86.9788 224.112 87.592C224.112 88.2052 224.356 88.7933 224.789 89.2269C225.223 89.6604 225.811 89.904 226.424 89.904Z" fill="#49E5DB" stroke="#231815" stroke-width="0.31" stroke-miterlimit="10"/>
<path d="M233.468 89.904C234.081 89.904 234.669 89.6604 235.103 89.2269C235.536 88.7933 235.78 88.2052 235.78 87.592C235.78 86.9788 235.536 86.3908 235.103 85.9572C234.669 85.5236 234.081 85.28 233.468 85.28C232.855 85.28 232.267 85.5236 231.833 85.9572C231.4 86.3908 231.156 86.9788 231.156 87.592C231.156 88.2052 231.4 88.7933 231.833 89.2269C232.267 89.6604 232.855 89.904 233.468 89.904Z" fill="white" stroke="#231815" stroke-width="0.31" stroke-miterlimit="10"/>
<path d="M241.548 95.616H217.544C217.156 95.616 216.783 95.7702 216.509 96.0448C216.234 96.3193 216.08 96.6917 216.08 97.08C216.08 97.4682 216.234 97.8406 216.509 98.1152C216.783 98.3897 217.156 98.544 217.544 98.544H241.548C241.936 98.544 242.309 98.3897 242.583 98.1152C242.858 97.8406 243.012 97.4682 243.012 97.08C243.012 96.6917 242.858 96.3193 242.583 96.0448C242.309 95.7702 241.936 95.616 241.548 95.616Z" fill="#F5F8FE" stroke="#231815" stroke-width="0.31" stroke-miterlimit="10"/>
<path d="M226.624 100.576H217.544C217.156 100.576 216.783 100.73 216.509 101.005C216.234 101.279 216.08 101.652 216.08 102.04C216.08 102.428 216.234 102.801 216.509 103.075C216.783 103.35 217.156 103.504 217.544 103.504H226.624C227.012 103.504 227.385 103.35 227.659 103.075C227.934 102.801 228.088 102.428 228.088 102.04C228.088 101.652 227.934 101.279 227.659 101.005C227.385 100.73 227.012 100.576 226.624 100.576Z" fill="#F5F8FE" stroke="#231815" stroke-width="0.29" stroke-miterlimit="10"/>
<path d="M259.376 147.316V139.48" stroke="#231815" stroke-width="0.41" stroke-miterlimit="10"/>
<path d="M260.952 141.728C260.915 141.751 260.87 141.758 260.827 141.748C260.785 141.739 260.748 141.713 260.724 141.676L259.376 139.556L258.024 141.676C258.007 141.705 257.982 141.729 257.952 141.743C257.922 141.758 257.888 141.763 257.855 141.757C257.822 141.752 257.791 141.737 257.767 141.713C257.742 141.69 257.726 141.66 257.719 141.627C257.715 141.605 257.715 141.583 257.721 141.561C257.725 141.539 257.735 141.518 257.748 141.5L259.236 139.164C259.25 139.14 259.271 139.12 259.295 139.106C259.32 139.094 259.348 139.087 259.376 139.088C259.403 139.088 259.43 139.095 259.454 139.108C259.478 139.121 259.498 139.141 259.512 139.164L261 141.5C261.019 141.525 261.029 141.556 261.028 141.588C261.028 141.616 261.021 141.643 261.007 141.667C260.994 141.692 260.975 141.713 260.952 141.728Z" fill="#231815"/>
<path d="M257.768 75.66H156.836V74.76C156.836 68.892 159.488 67.676 163.608 67.676H252.5C253.858 67.6756 255.162 68.2064 256.134 69.155C257.105 70.1035 257.668 71.3945 257.7 72.752L257.768 75.66Z" fill="#2F54EB" stroke="#231815" stroke-width="0.31" stroke-miterlimit="10"/>
<path d="M164.144 74.284C164.757 74.284 165.345 74.0405 165.779 73.6069C166.212 73.1733 166.456 72.5852 166.456 71.972C166.456 71.3589 166.212 70.7708 165.779 70.3372C165.345 69.9036 164.757 69.66 164.144 69.66C163.531 69.66 162.943 69.9036 162.509 70.3372C162.076 70.7708 161.832 71.3589 161.832 71.972C161.832 72.5852 162.076 73.1733 162.509 73.6069C162.943 74.0405 163.531 74.284 164.144 74.284Z" fill="#FF6666"/>
<path d="M171.184 74.284C171.797 74.284 172.385 74.0405 172.819 73.6069C173.252 73.1733 173.496 72.5852 173.496 71.972C173.496 71.3589 173.252 70.7708 172.819 70.3372C172.385 69.9036 171.797 69.66 171.184 69.66C170.571 69.66 169.983 69.9036 169.549 70.3372C169.116 70.7708 168.872 71.3589 168.872 71.972C168.872 72.5852 169.116 73.1733 169.549 73.6069C169.983 74.0405 170.571 74.284 171.184 74.284Z" fill="#F5F8FE" stroke="#231815" stroke-width="0.31" stroke-miterlimit="10"/>
<path d="M178.228 74.284C178.841 74.284 179.429 74.0405 179.863 73.6069C180.296 73.1733 180.54 72.5852 180.54 71.972C180.54 71.3589 180.296 70.7708 179.863 70.3372C179.429 69.9036 178.841 69.66 178.228 69.66C177.615 69.66 177.027 69.9036 176.593 70.3372C176.16 70.7708 175.916 71.3589 175.916 71.972C175.916 72.5852 176.16 73.1733 176.593 73.6069C177.027 74.0405 177.615 74.284 178.228 74.284Z" fill="#F8DC29"/>
<path d="M137.82 100.068C137.82 100.068 143.28 110.94 136.06 116.568C130.428 120.968 122.68 115.296 122.68 115.296L120.452 112.096L111.904 109.22L115.728 97.672L130.772 93.672L137.82 100.068Z" fill="#F9D3DC" stroke="#231815" stroke-width="0.415" stroke-miterlimit="10"/>
<path d="M68.872 115.248L82.156 138.232C82.4817 136.852 83.1696 135.584 84.1488 134.558C85.1286 133.533 86.3642 132.788 87.728 132.4C92.528 130.948 94.344 132.944 97.604 127.144C100.864 121.344 101.74 119.912 108.148 119.088C114.556 118.264 115.548 114.908 115.548 114.908C115.548 114.908 121.084 118.976 122.408 114.96C122.408 114.96 122.076 112.016 120.228 111.052C118.38 110.088 117.088 108.54 116.664 107.052C116.348 105.944 116.74 103.432 119.492 103.632C122.244 103.832 123.692 106.18 123.692 106.18C123.692 106.18 130.624 104.8 132.8 95.944C132.8 95.944 135.648 99.812 137.804 100.068L138.772 102.34C139.192 101.596 139.501 100.794 139.688 99.96C140.088 98.36 141.376 95.992 138.64 92.068C135.904 88.144 128.788 84.148 118.62 86.588C114.572 87.56 112.712 91.852 111.42 92.904C110.128 93.956 108.504 96.628 102.836 97.196C97.168 97.764 95.544 102.532 94.492 104.396C93.44 106.26 91.988 111.196 84.052 111.444C76.116 111.692 75.56 109.744 68.872 115.248Z" fill="#010001"/>
<path d="M125.168 116.68V130.072C125.168 130.072 132.012 135.168 137.252 130.072L137.28 115.428C137.28 115.428 132.156 121.2 125.168 116.68Z" fill="#F9D3DC" stroke="#231815" stroke-width="0.415" stroke-miterlimit="10"/>
<path d="M122.184 126.668C122.184 126.668 105.288 130.892 102 132C98.712 133.108 93.368 134.572 89.692 147.244C86.016 159.916 79.04 185.244 79.04 185.244C79.04 185.244 77.2 203.808 95.924 199.6L103.268 197.944H162.772L173.6 161.2L175.804 159.732L168.1 136.4C168.1 136.4 167.916 132.176 158.184 130.156C152.236 128.927 146.228 128.007 140.184 127.4C140.184 127.4 132.288 130.712 122.184 126.668Z" fill="#2F54EB" stroke="#231815" stroke-width="0.415" stroke-miterlimit="10"/>
<path d="M111.532 145.952L108.96 175.708" stroke="white" stroke-width="0.415" stroke-miterlimit="10"/>
<path d="M96.288 176.992L132.472 173.688L134.152 193.44L103.268 197.928" fill="#2F54EB"/>
<path d="M96.288 176.992L132.472 173.688L134.152 193.44L103.268 197.928" stroke="#231815" stroke-width="0.415" stroke-miterlimit="10"/>
<path d="M154.876 145.588L166.08 185.624" stroke="white" stroke-width="0.415" stroke-miterlimit="10"/>
<path d="M229.516 162.96L220.348 195.6C220.194 196.144 219.868 196.624 219.419 196.967C218.97 197.31 218.421 197.499 217.856 197.504L166.328 197.904C165.918 197.908 165.514 197.815 165.147 197.634C164.78 197.452 164.461 197.186 164.215 196.858C163.97 196.53 163.806 196.149 163.736 195.745C163.666 195.342 163.692 194.928 163.812 194.536L173.892 161.472C174.055 160.938 174.385 160.471 174.834 160.138C175.282 159.806 175.826 159.626 176.384 159.624L227.036 159.532C227.45 159.531 227.857 159.629 228.226 159.817C228.594 160.005 228.912 160.278 229.155 160.613C229.397 160.948 229.556 161.336 229.619 161.745C229.682 162.154 229.646 162.572 229.516 162.964V162.96Z" fill="#49E5DB" stroke="#231815" stroke-width="0.415" stroke-miterlimit="10"/>
<path d="M197.656 185.4C199.211 185.4 200.703 184.782 201.802 183.682C202.902 182.583 203.52 181.091 203.52 179.536C203.52 177.981 202.902 176.489 201.802 175.39C200.703 174.29 199.211 173.672 197.656 173.672C196.101 173.672 194.609 174.29 193.51 175.39C192.41 176.489 191.792 177.981 191.792 179.536C191.792 181.091 192.41 182.583 193.51 183.682C194.609 184.782 196.101 185.4 197.656 185.4Z" fill="white" stroke="#231815" stroke-width="0.555" stroke-miterlimit="10"/>
<path d="M128.4 117.88L137.296 122.328V115.408C137.296 115.408 134.204 119.172 128.4 117.88Z" fill="#231815"/>
<path d="M137.752 174.692L149.576 173.892L154.628 168C155.6 166.864 157.428 165.944 158.956 167.24C160.484 168.536 159.944 169.92 158.388 171.74L156.964 173.408C156.964 173.408 158.38 172.52 161.64 175.304C164.9 178.088 165.896 180.904 163.048 184.248L156 192.504C154.896 193.792 152.356 195.704 147.732 191.736L134.18 193.012L132.716 175.012L137.752 174.692Z" fill="#F9D3DC" stroke="#231815" stroke-width="0.415" stroke-miterlimit="10"/>
<path d="M158.048 180.168L162.824 184.316M154.78 183.816L159.56 188.172M151.476 187.468L156.548 192.016" stroke="#231815" stroke-width="0.535" stroke-miterlimit="10"/>
<path d="M132.7 175.012L139.296 192.456L134.164 193.012L132.7 175.012Z" fill="#231815"/>
<path opacity="0.46" d="M34.308 168.296C34.308 168.296 37 185.06 46.428 189.564C55.856 194.068 66.58 192.652 55.228 177.38C43.876 162.108 34.868 158.8 34.308 168.296Z" fill="#C2D3F9"/>
<path d="M243.58 169.732H225.288C223.959 169.732 222.684 170.26 221.744 171.2C220.804 172.14 220.276 173.415 220.276 174.744V185.144C220.276 186.473 220.804 187.748 221.744 188.688C222.684 189.628 223.959 190.156 225.288 190.156H243.58C244.909 190.156 246.184 189.628 247.124 188.688C248.064 187.748 248.592 186.473 248.592 185.144V174.744C248.592 173.415 248.064 172.14 247.124 171.2C246.184 170.26 244.909 169.732 243.58 169.732Z" fill="white" stroke="#231815" stroke-width="0.41" stroke-miterlimit="10"/>
<path d="M231.656 184.9H237.692C238.32 184.9 240.712 184.46 240.712 181.756C240.712 179.052 238.312 178.612 237 179.116C237 179.116 236.56 175.404 232.6 175.404C228.64 175.404 227.756 178.928 227.884 180.312C228.012 181.696 229.016 184.524 231.656 184.9Z" fill="#2F54EB" stroke="#231815" stroke-width="0.415" stroke-miterlimit="10"/>
<path d="M131.148 106.224C131.614 106.224 131.992 105.491 131.992 104.588C131.992 103.685 131.614 102.952 131.148 102.952C130.682 102.952 130.304 103.685 130.304 104.588C130.304 105.491 130.682 106.224 131.148 106.224ZM137.314 105.51C137.735 105.447 137.982 104.77 137.866 103.999C137.75 103.228 137.314 102.654 136.893 102.718C136.471 102.782 136.223 103.458 136.34 104.229C136.456 105 136.892 105.574 137.314 105.51Z" fill="black"/>
<path d="M134.676 104.284L138.692 110.504L134.428 111.244M134.236 114.52C134.236 114.52 130.192 114.144 129.344 112.12" stroke="black" stroke-width="0.5" stroke-miterlimit="10"/>
</svg>
