<svg width="25" height="24" viewBox="0 0 25 24" fill="none" xmlns="http://www.w3.org/2000/svg">
<path d="M22.899 9.33371C19.6536 7.05888 16.1727 5.0972 12.5 3.49255C8.82741 5.0972 5.34646 7.05887 2.10107 9.3337C2.99729 9.58107 3.88362 9.8523 4.75933 10.1466C7.44656 11.0499 10.0338 12.1709 12.5001 13.4886C14.9663 12.1709 17.5535 11.0499 20.2407 10.1467C21.1164 9.85233 22.0028 9.58109 22.899 9.33371Z" fill="#84A5FF"/>
<path d="M8 14.25C8 14.6642 7.66421 15 7.25 15C6.83579 15 6.5 14.6642 6.5 14.25C6.5 13.8358 6.83579 13.5 7.25 13.5C7.66421 13.5 8 13.8358 8 14.25Z" fill="#84A5FF"/>
<path d="M4.75933 10.1466C4.48688 12.2307 4.32139 14.3483 4.26853 16.494C7.16451 17.703 9.91893 19.1835 12.5 20.9036C15.0811 19.1835 17.8355 17.703 20.7315 16.494C20.6786 14.3484 20.5131 12.2307 20.2407 10.1467M4.75933 10.1466C3.88362 9.8523 2.99729 9.58107 2.10107 9.3337C5.34646 7.05887 8.82741 5.0972 12.5 3.49255C16.1727 5.0972 19.6536 7.05888 22.899 9.33371C22.0028 9.58109 21.1164 9.85233 20.2407 10.1467M4.75933 10.1466C7.44656 11.0499 10.0338 12.1709 12.5001 13.4886C14.9663 12.1709 17.5535 11.0499 20.2407 10.1467M7.25 15C7.66421 15 8 14.6642 8 14.25C8 13.8358 7.66421 13.5 7.25 13.5C6.83579 13.5 6.5 13.8358 6.5 14.25C6.5 14.6642 6.83579 15 7.25 15ZM7.25 15V11.3245C8.94147 10.2735 10.6936 9.31094 12.5 8.44329M5.49264 19.9926C6.66421 18.8211 7.25 17.2855 7.25 15.75V14.25" stroke="#0F172A" stroke-width="1.5" stroke-linecap="round" stroke-linejoin="round"/>
</svg>
