<svg width="25" height="24" viewBox="0 0 25 24" fill="none" xmlns="http://www.w3.org/2000/svg">
<path d="M9.875 14.25L15.875 8.25M20.375 4.75699V21.75L16.625 20.25L12.875 21.75L9.125 20.25L5.375 21.75V4.75699C5.375 3.649 6.18108 2.70014 7.28168 2.57241C9.11656 2.35947 10.983 2.25 12.875 2.25C14.767 2.25 16.6334 2.35947 18.4683 2.57241C19.5689 2.70014 20.375 3.649 20.375 4.75699ZM10.625 9H10.6325V9.0075H10.625V9ZM11 9C11 9.20711 10.8321 9.375 10.625 9.375C10.4179 9.375 10.25 9.20711 10.25 9C10.25 8.79289 10.4179 8.625 10.625 8.625C10.8321 8.625 11 8.79289 11 9ZM15.125 13.5H15.1325V13.5075H15.125V13.5ZM15.5 13.5C15.5 13.7071 15.3321 13.875 15.125 13.875C14.9179 13.875 14.75 13.7071 14.75 13.5C14.75 13.2929 14.9179 13.125 15.125 13.125C15.3321 13.125 15.5 13.2929 15.5 13.5Z" stroke="#0F172A" stroke-width="1.5" stroke-linecap="round" stroke-linejoin="round"/>
</svg>
