<svg width="25" height="24" viewBox="0 0 25 24" fill="none" xmlns="http://www.w3.org/2000/svg">
<path d="M15.125 2H6.125C5.59457 2 5.08586 2.21071 4.71079 2.58579C4.33571 2.96086 4.125 3.46957 4.125 4V20C4.125 20.5304 4.33571 21.0391 4.71079 21.4142C5.08586 21.7893 5.59457 22 6.125 22H18.125C18.6554 22 19.1641 21.7893 19.5392 21.4142C19.9143 21.0391 20.125 20.5304 20.125 20V7L15.125 2Z" fill="#84A5FF" stroke="black" stroke-width="1.5" stroke-linecap="round" stroke-linejoin="round"/>
<path d="M14.125 2V6C14.125 6.53043 14.3357 7.03914 14.7108 7.41421C15.0859 7.78929 15.5946 8 16.125 8H20.125" stroke="black" stroke-width="1.5" stroke-linecap="round" stroke-linejoin="round"/>
<path d="M10.125 9H8.125" stroke="black" stroke-width="1.5" stroke-linecap="round" stroke-linejoin="round"/>
<path d="M16.125 13H8.125" stroke="black" stroke-width="1.5" stroke-linecap="round" stroke-linejoin="round"/>
<path d="M16.125 17H8.125" stroke="black" stroke-width="1.5" stroke-linecap="round" stroke-linejoin="round"/>
</svg>
