<svg width="25" height="24" viewBox="0 0 25 24" fill="none" xmlns="http://www.w3.org/2000/svg">
<path d="M8.525 20C10.4336 20.979 12.6291 21.2442 14.7159 20.7478C16.8027 20.2513 18.6436 19.0258 19.9068 17.2922C21.17 15.5585 21.7724 13.4307 21.6056 11.2921C21.4387 9.1536 20.5136 7.14496 18.9968 5.62818C17.48 4.1114 15.4714 3.18624 13.3328 3.0194C11.1943 2.85257 9.06647 3.45503 7.33282 4.71823C5.59917 5.98143 4.37369 7.8223 3.87722 9.9091C3.38075 11.9959 3.64594 14.1914 4.625 16.1L2.625 22L8.525 20Z" stroke="black" stroke-width="1.5" stroke-linecap="round" stroke-linejoin="round"/>
<path d="M9.71503 9.00002C9.95013 8.33169 10.4142 7.76813 11.025 7.40915C11.6358 7.05018 12.3539 6.91896 13.0522 7.03873C13.7505 7.15851 14.3838 7.52154 14.8401 8.06355C15.2964 8.60555 15.5461 9.29154 15.545 10C15.545 12 12.545 13 12.545 13" stroke="black" stroke-width="1.5" stroke-linecap="round" stroke-linejoin="round"/>
<path d="M12.625 17H12.635" stroke="black" stroke-width="1.5" stroke-linecap="round" stroke-linejoin="round"/>
</svg>
