<svg width="27" height="26" viewBox="0 0 27 26" fill="none" xmlns="http://www.w3.org/2000/svg">
<path d="M9 16C9.85038 16.6303 10.8846 17 12 17C13.1154 17 14.1496 16.6303 15 16" stroke="#1C274C" stroke-width="1.5" stroke-linecap="round"/>
<ellipse cx="15" cy="10.5" rx="1" ry="1.5" fill="#1C274C"/>
<ellipse cx="9" cy="10.5" rx="1" ry="1.5" fill="#1C274C"/>
<path d="M2 12C2 7.28595 2 4.92893 3.46447 3.46447C4.92893 2 7.28595 2 12 2C16.714 2 19.0711 2 20.5355 3.46447C22 4.92893 22 7.28595 22 12C22 16.714 22 19.0711 20.5355 20.5355C19.0711 22 16.714 22 12 22C7.28595 22 4.92893 22 3.46447 20.5355C2 19.0711 2 16.714 2 12Z" stroke="#1C274C" stroke-width="1.5"/>
<path d="M16 19.7148C16 21.1999 17.7259 22.7643 19.1497 23.8022C19.9489 24.3847 20.3484 24.676 21 24.676C21.6516 24.676 22.0512 24.3847 22.8503 23.8022C24.2741 22.7643 26 21.1999 26 19.7148C26 17.0376 23.2499 16.0381 21 18.1062C18.7501 16.0381 16 17.0376 16 19.7148Z" fill="#355ECC"/>
<path d="M19.1497 23.8022L18.7079 24.4083L19.1497 23.8022ZM21 18.1062L20.4925 18.6583C20.7794 18.9221 21.2206 18.9221 21.5075 18.6583L21 18.1062ZM22.8503 23.8022L23.2921 24.4083L22.8503 23.8022ZM21 24.676L21 25.426H21L21 24.676ZM19.5915 23.1961C18.9013 22.693 18.1651 22.0811 17.6088 21.4363C17.0345 20.7705 16.75 20.1823 16.75 19.7148H15.25C15.25 20.7323 15.8285 21.6689 16.4731 22.4161C17.1357 23.1842 17.9743 23.8735 18.7079 24.4083L19.5915 23.1961ZM16.75 19.7148C16.75 18.6561 17.27 18.0523 17.8955 17.8418C18.5475 17.6224 19.5199 17.7643 20.4925 18.6583L21.5075 17.554C20.2302 16.3799 18.7025 15.9876 17.4171 16.4202C16.105 16.8617 15.25 18.0962 15.25 19.7148H16.75ZM23.2921 24.4083C24.0257 23.8735 24.8643 23.1842 25.527 22.4161C26.1716 21.6689 26.75 20.7323 26.75 19.7148H25.25C25.25 20.1823 24.9655 20.7705 24.3912 21.4363C23.8349 22.0811 23.0987 22.693 22.4085 23.1961L23.2921 24.4083ZM26.75 19.7148C26.75 18.0962 25.895 16.8617 24.5829 16.4202C23.2975 15.9876 21.7698 16.3799 20.4925 17.554L21.5075 18.6583C22.4801 17.7643 23.4525 17.6224 24.1045 17.8418C24.73 18.0523 25.25 18.6561 25.25 19.7148H26.75ZM18.7079 24.4083C19.463 24.9587 20.0618 25.426 21 25.426L21 23.926C20.635 23.926 20.4347 23.8107 19.5915 23.1961L18.7079 24.4083ZM22.4085 23.1961C21.5653 23.8107 21.365 23.926 21 23.926L21 25.426C21.9382 25.426 22.537 24.9587 23.2921 24.4083L22.4085 23.1961Z" fill="#355ECC"/>
</svg>
